{"title":"Green Lantern 2011 DVDrip English Klam","uid":6847028,"size":1565468737,"categoryP":"video","categoryS":"movies","magnet":"?xt=urn:btih:fa63baa761fb97ad44649c18a136dc94a5449f18&amp;dn=Green+Lantern+2011+DVDrip+English+Klam&amp;tr=udp%3A%2F%2Ftracker.openbittorrent.com%3A80&amp;tr=udp%3A%2F%2Fopen.demonii.com%3A1337&amp;tr=udp%3A%2F%2Ftracker.coppersurfer.tk%3A6969&amp;tr=udp%3A%2F%2Fexodus.desync.com%3A6969","seeders":1,"leechers":0,"uploader":"Klambake","files":-1,"time":1322390207,"description":"With: Ryan Reynolds, Blake Lively and Peter Sarsgaard\n\nErgens in het universum bestaat er een kleine maar krachtige strijdmacht die al eeuwen bestaan heeft. Beschermers van vrede en recht met de naam Green Lanterns, een broederschap van strijders die gezworen hebben de intergalactische orde te bewaren. Iedere lantern heeft een ring die hem superkrachten geeft, maar wanneer de nieuwe vijand Parallax dreigt de balans in het universum te verstoren ligt het lot van de aarde in handen van hun nieuwste recruit: de eerste mens ooit die ooit geselecteerd is, Hal Jordan (Ryan Reynolds).\n\nA test pilot is granted a mystical green ring that bestows him with otherworldly powers, as well as membership into an intergalactic squadron tasked with keeping peace within the universe.\n\n------------------------ Dutch Friends ------------------------\n---------------------------------------------------------------\n-- Bezoek ook eens mijn vrienden op: http://www.Film-Test.nl --\n----- voor mijn Nederlandse Sync. ondertitels ---- en meer ----\n------- http://www.Film-Test.nl ---- voor Films en meer -------\n---------------------------------------------------------------\n\nGeneral:\n\nComplete name                    : Green Lantern\\Green Lantern.avi\nFormat                           : AVI\nFormat/Info                      : Audio Video Interleave\nFile size                        : 1.46 GiB\nDuration                         : 1h 49mn\nOverall bit rate                 : 1 909 Kbps\n\nVideo:\n\nFormat                           : MPEG-4 Visual\nFormat profile                   : Simple@L3\nFormat settings, BVOP            : No\nFormat settings, QPel            : No\nFormat settings, GMC             : No warppoints\nFormat settings, Matrix          : Default (H.263)\nCodec ID                         : XVID\nCodec ID/Hint                    : XviD\nDuration                         : 1h 49mn\nBit rate                         : 1 514 Kbps\nWidth                            : 720 pixels\nHeight                           : 304 pixels\nDisplay aspect ratio             : 2.35:1\nFrame rate                       : 25.000 fps\nColor space                      : YUV\nChroma subsampling               : 4:2:0\nBit depth                        : 8 bits\nScan type                        : Progressive\nCompression mode                 : Lossy\nBits/(Pixel*Frame)               : 0.277\nStream size                      : 1.16 GiB (79%)\nWriting library                  : XviD 1.1.2 (UTC 2006-11-01)\n\nAudio:\n\nFormat                           : AC-3\nFormat/Info                      : Audio Coding 3\nMode extension                   : CM (complete main)\nCodec ID                         : 2000\nDuration                         : 1h 49mn\nBit rate mode                    : Constant\nBit rate                         : 384 Kbps\nChannel(s)                       : 6 channels\nChannel positions                : Front: L C R, Side: L R, LFE\nSampling rate                    : 48.0 KHz\nBit depth                        : 16 bits\nCompression mode                 : Lossy\nStream size                      : 300 MiB (20%)\nAlignment                        : Aligned on interleaves\nInterleave, duration             : 32 ms (0.80 video frame)\nInterleave, preload duration     : 512 ms\n\n\n","torrent":{"xt":"urn:btih:fa63baa761fb97ad44649c18a136dc94a5449f18","amp;dn":"Green+Lantern+2011+DVDrip+English+Klam","amp;tr":["udp%3A%2F%2Ftracker.openbittorrent.com%3A80","udp%3A%2F%2Fopen.demonii.com%3A1337","udp%3A%2F%2Ftracker.coppersurfer.tk%3A6969","udp%3A%2F%2Fexodus.desync.com%3A6969"],"infoHash":"fa63baa761fb97ad44649c18a136dc94a5449f18","infoHashBuffer":{"type":"Buffer","data":[250,99,186,167,97,251,151,173,68,100,156,24,161,54,220,148,165,68,159,24]},"announce":[],"urlList":[]}}